<svg xmlns="http://www.w3.org/2000/svg" xmlns:xlink="http://www.w3.org/1999/xlink" width="3000" height="123" version="1.1" viewBox="0 0 3000 123"><defs><linearGradient id="normalGradient" x1="0%" x2="0%" y1="0%" y2="100%"><stop offset="0%" style="stop-color:#ccc;stop-opacity:1"/><stop offset="100%" style="stop-color:#888;stop-opacity:1"/></linearGradient><linearGradient id="activeGradient" x1="0%" x2="0%" y1="0%" y2="100%"><stop offset="0%" style="stop-color:#fff;stop-opacity:1"/><stop offset="100%" style="stop-color:#ccc;stop-opacity:1"/></linearGradient></defs><g transform="translate(0,0)"><polygon fill="url(#normalGradient)" points="0 0 0 20 19 10"/></g><g transform="translate(19,0)"><polygon fill="url(#activeGradient)" points="0 0 0 20 19 10"/></g><g transform="translate(38,0)"><rect width="7" height="21" fill="url(#normalGradient)"/><rect width="7" height="21" x="12" fill="url(#normalGradient)"/></g><g transform="translate(57,0)"><rect width="7" height="21" fill="url(#activeGradient)"/><rect width="7" height="21" x="12" fill="url(#activeGradient)"/></g><g transform="translate(76,0) scale(0.27,0.27)"><path fill="none" stroke="url(#normalGradient)" stroke-width="20" d="M 20 50 a 30 30 0 1 0 30 -30"/><polygon fill="#CCC" points="25 20 52 40 52 0"/></g><g transform="translate(103,0) scale(0.27,0.27)"><path fill="none" stroke="url(#activeGradient)" stroke-width="20" d="M 20 50 a 30 30 0 1 0 30 -30"/><polygon fill="#FFF" points="25 20 52 40 52 0"/></g><g transform="translate(130,0) scale(0.25,0.21)"><rect width="75" height="75" x="25" y="0" fill="url(#normalGradient)" rx="5" ry="5"/><rect width="50" height="50" x="4" y="46" stroke="url(#normalGradient)" rx="5" ry="5" style="stroke-width:8;fill:none"/></g><g transform="translate(155,0) scale(0.25,0.21)"><rect width="75" height="75" x="25" y="0" fill="url(#activeGradient)" rx="5" ry="5"/><rect width="50" height="50" x="4" y="46" stroke="url(#activeGradient)" rx="5" ry="5" style="stroke-width:8;fill:none"/></g><g transform="translate(180,0) scale(0.25,0.21)"><rect width="75" height="75" x="21" y="4" rx="5" ry="5" style="stroke:#888;stroke-width:8;fill:none"/><rect width="50" height="50" x="0" y="50" rx="5" ry="5" style="fill:#888"/></g><g transform="translate(205,0) scale(0.25,0.21)"><rect width="75" height="75" x="21" y="4" rx="5" ry="5" style="stroke:#fff;stroke-width:8;fill:none"/><rect width="50" height="50" x="0" y="50" rx="5" ry="5" style="fill:#fff"/></g><g transform="translate(230,0) scale(1.18,1.18)"><circle cx="50" cy="50" r="45" fill="none" stroke="#888" stroke-width="5"/><polygon fill="#888" points="35 25 35 75 75 50"/></g><g transform="translate(348,0) scale(1.18,1.18)"><circle cx="50" cy="50" r="45" fill="none" stroke="#FFF" stroke-width="5"/><polygon fill="#FFF" points="35 25 35 75 75 50"/></g><g transform="translate(466,0) scale(0.71,0.71)"><path fill="none" stroke="#888" stroke-width="4" d="M 10 25 a 7 7 0 1 0 7 -7"/><polygon fill="#888" points="12 18 17.2 23.5 17.2 12.5"/></g><g transform="translate(537,0) scale(0.71,0.71)"><path fill="none" stroke="#FFF" stroke-width="4" d="M 10 25 a 7 7 0 1 0 7 -7"/><polygon fill="#FFF" points="12 18 17.2 23.5 17.2 12.5"/></g></svg>